STARTFONT 2.1
COMMENT Copyright (C) 1990-1991 EWT Consulting
COMMENT Portions Copyright (C) 1994-1995 Cronyx Ltd.
COMMENT Changes Copyright (C) 1996 by Andrey A. Chernov, Moscow, Russia.
COMMENT Modified by Serge Vakulenko, <vak@cronyx.ru>
COMMENT This software may be used, modified, copied, distributed, and sold,
COMMENT in both source and binary form provided that the copyright
COMMENT and these terms are retained. Under no circumstances is the author
COMMENT responsible for the proper functioning of this software, nor does
COMMENT the author assume any responsibility for damages incurred with its use.
COMMENT $XFree86: xc/fonts/bdf/cyrillic/crox3tbo.bdf,v 3.2 1996/09/01 12:18:22 dawes Exp $
FONT -Cronyx-Times-Bold-I-Normal--17-120-100-100-P-64-KOI8-R
SIZE 12 96 96
FONTBOUNDINGBOX 25 19 -1 -4
STARTPROPERTIES 19
DEFAULT_CHAR 32
FONT_ASCENT 15
FONT_DESCENT 4
SPACING "P"
FONTNAME_REGISTRY ""
FOUNDRY "Cronyx"
FAMILY_NAME "Times"
WEIGHT_NAME "Bold"
SLANT "I"
SETWIDTH_NAME "Normal"
ADD_STYLE_NAME ""
AVERAGE_WIDTH 64
CHARSET_REGISTRY "KOI8"
CHARSET_ENCODING "R"
PIXEL_SIZE 17
POINT_SIZE 120
RESOLUTION_X 100
RESOLUTION_Y 100
COPYRIGHT "Copyright (C) 1990, 1991 EWT Consulting, Portions Copyright (C) 1994 Cronyx Ltd., Portions Copyright (C) 1996 by Andrey A. Chernov, Moscow, Russia."
ENDPROPERTIES
CHARS 224
STARTCHAR space
ENCODING 32
SWIDTH 263 0
DWIDTH 5 0
BBX 11 19 -1 -4
BITMAP
0000
0000
0000
0000
0000
0000
0000
0000
0000
0000
0000
0000
0000
0000
0000
0000
0000
0000
0000
ENDCHAR
STARTCHAR exclam
ENCODING 33
SWIDTH 263 0
DWIDTH 5 0
BBX 11 19 -1 -4
BITMAP
0000
0000
0000
0000
0300
0300
0300
0600
0600
0600
0C00
0C00
0000
1800
1800
0000
0000
0000
0000
ENDCHAR
STARTCHAR quotedbl
ENCODING 34
SWIDTH 368 0
DWIDTH 7 0
BBX 13 19 -1 -4
BITMAP
0000
0000
0000
0000
0360
0360
0360
06C0
0000
0000
0000
0000
0000
0000
0000
0000
0000
0000
0000
ENDCHAR
STARTCHAR numbersign
ENCODING 35
SWIDTH 473 0
DWIDTH 9 0
BBX 15 19 -1 -4
BITMAP
0000
0000
0000
0000
00D8
00D8
00D8
07F8
0360
0360
06C0
1FE0
0D80
1B00
1B00
0000
0000
0000
0000
ENDCHAR
STARTCHAR dollar
ENCODING 36
SWIDTH 473 0
DWIDTH 9 0
BBX 15 19 -1 -4
BITMAP
0000
0000
0030
0030
01F8
0378
0378
06C0
03C0
01C0
01C0
01E0
0DE0
1FC0
1F80
0300
0600
0000
0000
ENDCHAR
STARTCHAR percent
ENCODING 37
SWIDTH 736 0
DWIDTH 14 0
BBX 20 19 -1 -4
BITMAP
000000
000000
000000
000000
01C0C0
037F80
036300
06CC00
039800
003000
00CE00
019B00
031B00
0C3600
181C00
000000
000000
000000
000000
ENDCHAR
STARTCHAR ampersand
ENCODING 38
SWIDTH 684 0
DWIDTH 13 0
BBX 19 19 -1 -4
BITMAP
000000
000000
000000
000000
00E000
01B000
01B000
036000
01C000
01CF00
06CC00
0C7800
0C3000
18F000
0F9800
000000
000000
000000
000000
ENDCHAR
STARTCHAR quoteright
ENCODING 39
SWIDTH 263 0
DWIDTH 5 0
BBX 11 19 -1 -4
BITMAP
0000
0000
0000
0000
0300
0300
0300
0600
0000
0000
0000
0000
0000
0000
0000
0000
0000
0000
0000
ENDCHAR
STARTCHAR parenleft
ENCODING 40
SWIDTH 315 0
DWIDTH 6 0
BBX 12 19 -1 -4
BITMAP
0000
0000
0000
0060
00C0
0180
0180
0600
0600
0600
0C00
0C00
0C00
1800
0C00
0C00
0C00
0C00
0000
ENDCHAR
STARTCHAR parenright
ENCODING 41
SWIDTH 315 0
DWIDTH 6 0
BBX 12 19 -1 -4
BITMAP
0000
0000
0000
0180
0300
0180
0180
0180
0180
0180
0300
0300
0300
0600
0C00
0C00
3000
3000
0000
ENDCHAR
STARTCHAR asterisk
ENCODING 42
SWIDTH 421 0
DWIDTH 8 0
BBX 14 19 -1 -4
BITMAP
0000
0000
0000
0000
00C0
03F0
01E0
03C0
07E0
0180
0000
0000
0000
0000
0000
0000
0000
0000
0000
ENDCHAR
STARTCHAR plus
ENCODING 43
SWIDTH 526 0
DWIDTH 10 0
BBX 16 19 -1 -4
BITMAP
0000
0000
0000
0000
0000
0000
0060
00C0
00C0
07F8
0180
0180
0180
0000
0000
0000
0000
0000
0000
ENDCHAR
STARTCHAR comma
ENCODING 44
SWIDTH 263 0
DWIDTH 5 0
BBX 11 19 -1 -4
BITMAP
0000
0000
0000
0000
0000
0000
0000
0000
0000
0000
0000
0000
0000
1800
1800
2000
0000
0000
0000
ENDCHAR
STARTCHAR minus
ENCODING 45
SWIDTH 315 0
DWIDTH 6 0
BBX 12 19 -1 -4
BITMAP
0000
0000
0000
0000
0000
0000
0000
0000
0000
0F80
0000
0000
0000
0000
0000
0000
0000
0000
0000
ENDCHAR
STARTCHAR period
ENCODING 46
SWIDTH 263 0
DWIDTH 5 0
BBX 11 19 -1 -4
BITMAP
0000
0000
0000
0000
0000
0000
0000
0000
0000
0000
0000
0000
0000
1800
1800
0000
0000
0000
0000
ENDCHAR
STARTCHAR slash
ENCODING 47
SWIDTH 315 0
DWIDTH 6 0
BBX 12 19 -1 -4
BITMAP
0000
0000
0000
0000
0060
0060
00C0
0180
0180
0300
0600
0C00
0C00
1800
2000
2000
0000
0000
0000
ENDCHAR
STARTCHAR zero
ENCODING 48
SWIDTH 473 0
DWIDTH 9 0
BBX 15 19 -1 -4
BITMAP
0000
0000
0000
0000
00E0
01B0
0318
0630
0630
0630
0C60
0C60
0C60
0D80
0700
0000
0000
0000
0000
ENDCHAR
STARTCHAR one
ENCODING 49
SWIDTH 473 0
DWIDTH 9 0
BBX 15 19 -1 -4
BITMAP
0000
0000
0000
0000
0060
00E0
01E0
00C0
00C0
00C0
0180
0180
0180
0300
0FC0
0000
0000
0000
0000
ENDCHAR
STARTCHAR two
ENCODING 50
SWIDTH 473 0
DWIDTH 9 0
BBX 15 19 -1 -4
BITMAP
0000
0000
0000
0000
01E0
0330
0018
0030
0030
0060
0180
0300
0600
18C0
1FC0
0000
0000
0000
0000
ENDCHAR
STARTCHAR three
ENCODING 51
SWIDTH 473 0
DWIDTH 9 0
BBX 15 19 -1 -4
BITMAP
0000
0000
0000
0000
01E0
0330
0018
0030
0060
01C0
00C0
0060
0060
1980
0F00
0000
0000
0000
0000
ENDCHAR
STARTCHAR four
ENCODING 52
SWIDTH 473 0
DWIDTH 9 0
BBX 15 19 -1 -4
BITMAP
0000
0000
0000
0000
0018
0038
0078
00F0
01B0
0330
0660
0C60
0FE0
00C0
00C0
0000
0000
0000
0000
ENDCHAR
STARTCHAR five
ENCODING 53
SWIDTH 473 0
DWIDTH 9 0
BBX 15 19 -1 -4
BITMAP
0000
0000
0000
0000
01F8
0180
0300
0600
07C0
0060
0060
0060
0060
1980
0F00
0000
0000
0000
0000
ENDCHAR
STARTCHAR six
ENCODING 54
SWIDTH 473 0
DWIDTH 9 0
BBX 15 19 -1 -4
BITMAP
0000
0000
0000
0000
0038
00E0
0180
0300
07E0
0730
0C60
0C60
0C60
18C0
0F80
0000
0000
0000
0000
ENDCHAR
STARTCHAR seven
ENCODING 55
SWIDTH 473 0
DWIDTH 9 0
BBX 15 19 -1 -4
BITMAP
0000
0000
0000
0000
03F8
0318
0018
0060
0060
0060
0180
0180
0180
0600
0600
0000
0000
0000
0000
ENDCHAR
STARTCHAR eight
ENCODING 56
SWIDTH 473 0
DWIDTH 9 0
BBX 15 19 -1 -4
BITMAP
0000
0000
0000
0000
01F0
0318
0318
0630
0630
03E0
0C60
0C60
0C60
18C0
0F80
0000
0000
0000
0000
ENDCHAR
STARTCHAR nine
ENCODING 57
SWIDTH 473 0
DWIDTH 9 0
BBX 15 19 -1 -4
BITMAP
0000
0000
0000
0000
01F0
0318
0318
0630
0630
0670
07E0
00C0
00C0
0700
1C00
0000
0000
0000
0000
ENDCHAR
STARTCHAR colon
ENCODING 58
SWIDTH 263 0
DWIDTH 5 0
BBX 11 19 -1 -4
BITMAP
0000
0000
0000
0000
0000
0000
0000
0000
0600
0600
0000
0000
0000
1800
1800
0000
0000
0000
0000
ENDCHAR
STARTCHAR semicolon
ENCODING 59
SWIDTH 263 0
DWIDTH 5 0
BBX 11 19 -1 -4
BITMAP
0000
0000
0000
0000
0000
0000
0000
0000
0600
0600
0000
0000
0000
1800
1800
2000
0000
0000
0000
ENDCHAR
STARTCHAR less
ENCODING 60
SWIDTH 526 0
DWIDTH 10 0
BBX 16 19 -1 -4
BITMAP
0000
0000
0000
0000
0000
0000
0000
0018
0070
01C0
0E00
0380
00E0
0060
0000
0000
0000
0000
0000
ENDCHAR
STARTCHAR equal
ENCODING 61
SWIDTH 526 0
DWIDTH 10 0
BBX 16 19 -1 -4
BITMAP
0000
0000
0000
0000
0000
0000
0000
0000
0000
07F8
0000
0FF0
0000
0000
0000
0000
0000
0000
0000
ENDCHAR
STARTCHAR greater
ENCODING 62
SWIDTH 526 0
DWIDTH 10 0
BBX 16 19 -1 -4
BITMAP
0000
0000
0000
0000
0000
0000
0000
0600
0380
00E0
0070
01C0
0700
1800
0000
0000
0000
0000
0000
ENDCHAR
STARTCHAR question
ENCODING 63
SWIDTH 421 0
DWIDTH 8 0
BBX 14 19 -1 -4
BITMAP
0000
0000
0000
0000
01E0
0330
0030
0060
00C0
0180
0300
0300
0000
0600
0600
0000
0000
0000
0000
ENDCHAR
STARTCHAR at
ENCODING 64
SWIDTH 842 0
DWIDTH 16 0
BBX 22 19 -1 -4
BITMAP
000000
000000
000000
000000
003F00
00E1C0
018060
0300C0
063F60
066660
0CCCC0
0D98C0
0D98C0
1B3300
19FE00
0C0000
1C1C00
07F000
000000
ENDCHAR
STARTCHAR A
ENCODING 65
SWIDTH 631 0
DWIDTH 12 0
BBX 18 19 -1 -4
BITMAP
000000
000000
000000
000000
003000
003000
007800
00F000
019800
019800
061800
07F800
0C0C00
181800
3C3C00
000000
000000
000000
000000
ENDCHAR
STARTCHAR B
ENCODING 66
SWIDTH 631 0
DWIDTH 12 0
BBX 18 19 -1 -4
BITMAP
000000
000000
000000
000000
03F800
018C00
018600
030C00
031800
03F800
061800
060C00
060C00
0C3000
1FE000
000000
000000
000000
000000
ENDCHAR
STARTCHAR C
ENCODING 67
SWIDTH 631 0
DWIDTH 12 0
BBX 18 19 -1 -4
BITMAP
000000
000000
000000
000000
007F00
01C700
018300
060000
060000
060000
0C0000
0C0000
060C00
0E3000
03E000
000000
000000
000000
000000
ENDCHAR
STARTCHAR D
ENCODING 68
SWIDTH 684 0
DWIDTH 13 0
BBX 19 19 -1 -4
BITMAP
000000
000000
000000
000000
03FC00
018700
018300
030300
030300
030300
060600
060600
060C00
0C3800
1FE000
000000
000000
000000
000000
ENDCHAR
STARTCHAR E
ENCODING 69
SWIDTH 578 0
DWIDTH 11 0
BBX 17 19 -1 -4
BITMAP
000000
000000
000000
000000
03FE00
018600
018000
030000
033000
03F000
066000
060000
060000
0C3000
1FF000
000000
000000
000000
000000
ENDCHAR
STARTCHAR F
ENCODING 70
SWIDTH 578 0
DWIDTH 11 0
BBX 17 19 -1 -4
BITMAP
000000
000000
000000
000000
03FE00
018600
018000
030000
033000
03F000
066000
060000
060000
0C0000
1E0000
000000
000000
000000
000000
ENDCHAR
STARTCHAR G
ENCODING 71
SWIDTH 684 0
DWIDTH 13 0
BBX 19 19 -1 -4
BITMAP
000000
000000
000000
000000
007F00
01C700
018300
060000
060000
060F80
0C0600
0C0600
060C00
0E3800
03E000
000000
000000
000000
000000
ENDCHAR
STARTCHAR H
ENCODING 72
SWIDTH 684 0
DWIDTH 13 0
BBX 19 19 -1 -4
BITMAP
000000
000000
000000
000000
03C780
018300
018300
030600
030600
03FE00
060C00
060C00
060C00
0C1800
1E3C00
000000
000000
000000
000000
ENDCHAR
STARTCHAR I
ENCODING 73
SWIDTH 315 0
DWIDTH 6 0
BBX 12 19 -1 -4
BITMAP
0000
0000
0000
0000
03C0
0180
0180
0300
0300
0300
0600
0600
0600
0C00
1E00
0000
0000
0000
0000
ENDCHAR
STARTCHAR J
ENCODING 74
SWIDTH 421 0
DWIDTH 8 0
BBX 14 19 -1 -4
BITMAP
0000
0000
0000
0000
00F0
0060
0060
00C0
00C0
00C0
0180
0180
0180
1B00
0E00
0000
0000
0000
0000
ENDCHAR
STARTCHAR K
ENCODING 75
SWIDTH 631 0
DWIDTH 12 0
BBX 18 19 -1 -4
BITMAP
000000
000000
000000
000000
03CF00
018600
018C00
033000
036000
03E000
076000
063000
061800
0C1800
1E3C00
000000
000000
000000
000000
ENDCHAR
STARTCHAR L
ENCODING 76
SWIDTH 578 0
DWIDTH 11 0
BBX 17 19 -1 -4
BITMAP
000000
000000
000000
000000
03C000
018000
018000
030000
030000
030000
060000
060000
060000
0C3000
1FF000
000000
000000
000000
000000
ENDCHAR
STARTCHAR M
ENCODING 77
SWIDTH 842 0
DWIDTH 16 0
BBX 22 19 -1 -4
BITMAP
000000
000000
000000
000000
038070
01C0E0
01C0E0
03C3C0
03C3C0
0366C0
06CD80
067980
067980
0C6300
1E6780
000000
000000
000000
000000
ENDCHAR
STARTCHAR N
ENCODING 78
SWIDTH 684 0
DWIDTH 13 0
BBX 19 19 -1 -4
BITMAP
000000
000000
000000
000000
038780
01C300
01C300
03C600
036600
036600
066C00
063C00
063C00
0C3800
1E1800
000000
000000
000000
000000
ENDCHAR
STARTCHAR O
ENCODING 79
SWIDTH 684 0
DWIDTH 13 0
BBX 19 19 -1 -4
BITMAP
000000
000000
000000
000000
007C00
01C700
018300
060300
060300
060300
0C0600
0C0600
060C00
0E3800
03E000
000000
000000
000000
000000
ENDCHAR
STARTCHAR P
ENCODING 80
SWIDTH 526 0
DWIDTH 10 0
BBX 16 19 -1 -4
BITMAP
0000
0000
0000
0000
03F0
0198
018C
0318
0330
03E0
0600
0600
0600
0C00
1E00
0000
0000
0000
0000
ENDCHAR
STARTCHAR Q
ENCODING 81
SWIDTH 684 0
DWIDTH 13 0
BBX 19 19 -1 -4
BITMAP
000000
000000
000000
000000
007C00
01C700
018300
060300
060300
060300
0C0600
0C0600
060C00
0E3800
03E000
00E000
00E000
000000
000000
ENDCHAR
STARTCHAR R
ENCODING 82
SWIDTH 578 0
DWIDTH 11 0
BBX 17 19 -1 -4
BITMAP
000000
000000
000000
000000
03F000
019800
018C00
031800
033000
03E000
06C000
066000
063000
0C3000
1E1800
000000
000000
000000
000000
ENDCHAR
STARTCHAR S
ENCODING 83
SWIDTH 526 0
DWIDTH 10 0
BBX 16 19 -1 -4
BITMAP
0000
0000
0000
0000
00FC
019C
030C
0600
0300
01E0
0060
0030
0C30
1CC0
1F80
0000
0000
0000
0000
ENDCHAR
STARTCHAR T
ENCODING 84
SWIDTH 526 0
DWIDTH 10 0
BBX 16 19 -1 -4
BITMAP
0000
0000
0000
0000
07FE
0466
0060
00C0
00C0
00C0
0180
0180
0180
0300
0780
0000
0000
0000
0000
ENDCHAR
STARTCHAR U
ENCODING 85
SWIDTH 684 0
DWIDTH 13 0
BBX 19 19 -1 -4
BITMAP
000000
000000
000000
000000
03C780
018300
018300
030600
030600
030600
060C00
060C00
060C00
063000
03E000
000000
000000
000000
000000
ENDCHAR
STARTCHAR V
ENCODING 86
SWIDTH 631 0
DWIDTH 12 0
BBX 18 19 -1 -4
BITMAP
000000
000000
000000
000000
078780
030300
030300
030C00
030C00
019800
033000
01E000
01E000
018000
018000
000000
000000
000000
000000
ENDCHAR
STARTCHAR W
ENCODING 87
SWIDTH 842 0
DWIDTH 16 0
BBX 22 19 -1 -4
BITMAP
000000
000000
000000
000000
07FFF8
033330
033360
033CC0
033CC0
019980
033300
01FE00
01FE00
019800
019800
000000
000000
000000
000000
ENDCHAR
STARTCHAR X
ENCODING 88
SWIDTH 631 0
DWIDTH 12 0
BBX 18 19 -1 -4
BITMAP
000000
000000
000000
000000
078780
030300
018600
019800
00F000
006000
01E000
033000
061800
181800
3C3C00
000000
000000
000000
000000
ENDCHAR
STARTCHAR Y
ENCODING 89
SWIDTH 631 0
DWIDTH 12 0
BBX 18 19 -1 -4
BITMAP
000000
000000
000000
000000
078780
030300
018600
019800
00F000
006000
00C000
00C000
00C000
018000
03C000
000000
000000
000000
000000
ENDCHAR
STARTCHAR Z
ENCODING 90
SWIDTH 578 0
DWIDTH 11 0
BBX 17 19 -1 -4
BITMAP
000000
000000
000000
000000
03FE00
030C00
001800
003000
006000
00C000
030000
060000
060000
183000
3FF000
000000
000000
000000
000000
ENDCHAR
STARTCHAR bracketleft
ENCODING 91
SWIDTH 315 0
DWIDTH 6 0
BBX 12 19 -1 -4
BITMAP
0000
0000
0000
01E0
0300
0300
0300
0600
0600
0600
0C00
0C00
0C00
1800
1800
1800
3000
3C00
0000
ENDCHAR
STARTCHAR backslash
ENCODING 92
SWIDTH 315 0
DWIDTH 6 0
BBX 12 19 -1 -4
BITMAP
0000
0000
0000
0000
0400
0400
0300
0600
0600
0300
0600
0300
0300
0600
0300
0300
0000
0000
0000
ENDCHAR
STARTCHAR bracketright
ENCODING 93
SWIDTH 315 0
DWIDTH 6 0
BBX 12 19 -1 -4
BITMAP
0000
0000
0000
01E0
00C0
00C0
00C0
0180
0180
0180
0300
0300
0300
0600
0600
0600
0C00
3C00
0000
ENDCHAR
STARTCHAR asciicircum
ENCODING 94
SWIDTH 421 0
DWIDTH 8 0
BBX 14 19 -1 -4
BITMAP
0000
0000
0000
0060
01E0
0330
0000
0000
0000
0000
0000
0000
0000
0000
0000
0000
0000
0000
0000
ENDCHAR
STARTCHAR underscore
ENCODING 95
SWIDTH 473 0
DWIDTH 9 0
BBX 15 19 -1 -4
BITMAP
0000
0000
0000
0000
0000
0000
0000
0000
0000
0000
0000
0000
0000
0000
0000
0000
0000
0000
7FC0
ENDCHAR
STARTCHAR quoteleft
ENCODING 96
SWIDTH 315 0
DWIDTH 6 0
BBX 12 19 -1 -4
BITMAP
0000
0000
0000
0200
0300
0180
0000
0000
0000
0000
0000
0000
0000
0000
0000
0000
0000
0000
0000
ENDCHAR
STARTCHAR a
ENCODING 97
SWIDTH 368 0
DWIDTH 7 0
BBX 13 19 -1 -4
BITMAP
0000
0000
0000
0000
0000
0000
0000
0380
06C0
00C0
0780
0D80
0D80
1B00
0F80
0000
0000
0000
0000
ENDCHAR
STARTCHAR b
ENCODING 98
SWIDTH 421 0
DWIDTH 8 0
BBX 14 19 -1 -4
BITMAP
0000
0000
0000
01C0
0180
0180
0180
03E0
03B0
0330
0660
0660
0660
0CC0
0780
0000
0000
0000
0000
ENDCHAR
STARTCHAR c
ENCODING 99
SWIDTH 368 0
DWIDTH 7 0
BBX 13 19 -1 -4
BITMAP
0000
0000
0000
0000
0000
0000
0000
03C0
0660
0600
0C00
0C00
0C00
1980
0F00
0000
0000
0000
0000
ENDCHAR
STARTCHAR d
ENCODING 100
SWIDTH 421 0
DWIDTH 8 0
BBX 14 19 -1 -4
BITMAP
0000
0000
0000
0038
0030
0030
0030
03E0
0660
0660
0CC0
0CC0
0CC0
1980
0FC0
0000
0000
0000
0000
ENDCHAR
STARTCHAR e
ENCODING 101
SWIDTH 368 0
DWIDTH 7 0
BBX 13 19 -1 -4
BITMAP
0000
0000
0000
0000
0000
0000
0000
03C0
0660
0660
0FC0
0C00
0C00
1980
0F00
0000
0000
0000
0000
ENDCHAR
STARTCHAR f
ENCODING 102
SWIDTH 368 0
DWIDTH 7 0
BBX 13 19 -1 -4
BITMAP
0000
0000
0000
0070
01B0
0180
0180
0780
0300
0300
0600
0600
0600
0C00
1E00
0000
0000
0000
0000
ENDCHAR
STARTCHAR g
ENCODING 103
SWIDTH 473 0
DWIDTH 9 0
BBX 15 19 -1 -4
BITMAP
0000
0000
0000
0000
0000
0000
0000
03F0
0660
0660
0CC0
0CC0
0780
1800
1F80
20C0
40C0
40C0
3F80
ENDCHAR
STARTCHAR h
ENCODING 104
SWIDTH 473 0
DWIDTH 9 0
BBX 15 19 -1 -4
BITMAP
0000
0000
0000
01C0
0180
0180
0180
03E0
03B0
0330
0660
0660
0660
0CC0
1FE0
0000
0000
0000
0000
ENDCHAR
STARTCHAR i
ENCODING 105
SWIDTH 263 0
DWIDTH 5 0
BBX 11 19 -1 -4
BITMAP
0000
0000
0000
0000
0180
0000
0000
0700
0300
0300
0600
0600
0600
0C00
1E00
0000
0000
0000
0000
ENDCHAR
STARTCHAR j
ENCODING 106
SWIDTH 210 0
DWIDTH 4 0
BBX 10 19 -1 -4
BITMAP
0000
0000
0000
0000
0180
0000
0000
0700
0300
0300
0600
0600
0600
0C00
0C00
0C00
1800
1800
3000
ENDCHAR
STARTCHAR k
ENCODING 107
SWIDTH 526 0
DWIDTH 10 0
BBX 16 19 -1 -4
BITMAP
0000
0000
0000
01C0
0180
0180
0180
0378
0330
0360
0780
07C0
0660
0C60
1EF0
0000
0000
0000
0000
ENDCHAR
STARTCHAR l
ENCODING 108
SWIDTH 263 0
DWIDTH 5 0
BBX 11 19 -1 -4
BITMAP
0000
0000
0000
01C0
0180
0180
0180
0300
0300
0300
0600
0600
0600
0C00
1E00
0000
0000
0000
0000
ENDCHAR
STARTCHAR m
ENCODING 109
SWIDTH 684 0
DWIDTH 13 0
BBX 19 19 -1 -4
BITMAP
000000
000000
000000
000000
000000
000000
000000
07EE00
03BB00
033300
066600
066600
066600
0CCC00
1FFE00
000000
000000
000000
000000
ENDCHAR
STARTCHAR n
ENCODING 110
SWIDTH 473 0
DWIDTH 9 0
BBX 15 19 -1 -4
BITMAP
0000
0000
0000
0000
0000
0000
0000
07E0
03B0
0330
0660
0660
0660
0CC0
1FE0
0000
0000
0000
0000
ENDCHAR
STARTCHAR o
ENCODING 111
SWIDTH 368 0
DWIDTH 7 0
BBX 13 19 -1 -4
BITMAP
0000
0000
0000
0000
0000
0000
0000
03C0
0660
0660
0CC0
0CC0
0CC0
1980
0F00
0000
0000
0000
0000
ENDCHAR
STARTCHAR p
ENCODING 112
SWIDTH 421 0
DWIDTH 8 0
BBX 14 19 -1 -4
BITMAP
0000
0000
0000
0000
0000
0000
0000
07E0
03B0
0330
0660
0660
0660
0CC0
0F80
0C00
1800
1800
3C00
ENDCHAR
STARTCHAR q
ENCODING 113
SWIDTH 421 0
DWIDTH 8 0
BBX 14 19 -1 -4
BITMAP
0000
0000
0000
0000
0000
0000
0000
03E0
06E0
0660
0CC0
0CC0
0CC0
1980
0F80
0180
0300
0300
0780
ENDCHAR
STARTCHAR r
ENCODING 114
SWIDTH 315 0
DWIDTH 6 0
BBX 12 19 -1 -4
BITMAP
0000
0000
0000
0000
0000
0000
0000
07C0
0380
0300
0600
0600
0600
0C00
1E00
0000
0000
0000
0000
ENDCHAR
STARTCHAR s
ENCODING 115
SWIDTH 263 0
DWIDTH 5 0
BBX 11 19 -1 -4
BITMAP
0000
0000
0000
0000
0000
0000
0000
0380
0600
0600
0600
0300
0300
0600
1C00
0000
0000
0000
0000
ENDCHAR
STARTCHAR t
ENCODING 116
SWIDTH 315 0
DWIDTH 6 0
BBX 12 19 -1 -4
BITMAP
0000
0000
0000
0000
0000
0180
0180
0780
0300
0300
0600
0600
0600
0F00
0600
0000
0000
0000
0000
ENDCHAR
STARTCHAR u
ENCODING 117
SWIDTH 473 0
DWIDTH 9 0
BBX 15 19 -1 -4
BITMAP
0000
0000
0000
0000
0000
0000
0000
0770
0330
0330
0660
0660
0660
0DC0
07E0
0000
0000
0000
0000
ENDCHAR
STARTCHAR v
ENCODING 118
SWIDTH 473 0
DWIDTH 9 0
BBX 15 19 -1 -4
BITMAP
0000
0000
0000
0000
0000
0000
0000
07F8
0330
0330
03C0
03C0
03C0
0300
0300
0000
0000
0000
0000
ENDCHAR
STARTCHAR w
ENCODING 119
SWIDTH 684 0
DWIDTH 13 0
BBX 19 19 -1 -4
BITMAP
000000
000000
000000
000000
000000
000000
000000
07FF80
033300
033300
03FC00
03FC00
03FC00
033000
033000
000000
000000
000000
000000
ENDCHAR
STARTCHAR x
ENCODING 120
SWIDTH 473 0
DWIDTH 9 0
BBX 15 19 -1 -4
BITMAP
0000
0000
0000
0000
0000
0000
0000
0738
0330
01E0
0180
0180
03C0
0CC0
1CE0
0000
0000
0000
0000
ENDCHAR
STARTCHAR y
ENCODING 121
SWIDTH 473 0
DWIDTH 9 0
BBX 15 19 -1 -4
BITMAP
0000
0000
0000
0000
0000
0000
0000
07F8
0330
0330
03C0
03C0
03C0
0300
0300
0600
0C00
3C00
3800
ENDCHAR
STARTCHAR z
ENCODING 122
SWIDTH 421 0
DWIDTH 8 0
BBX 14 19 -1 -4
BITMAP
0000
0000
0000
0000
0000
0000
0000
07F0
0660
00C0
0180
0300
0300
0CC0
1FC0
0000
0000
0000
0000
ENDCHAR
STARTCHAR braceleft
ENCODING 123
SWIDTH 421 0
DWIDTH 8 0
BBX 14 19 -1 -4
BITMAP
0000
0000
0000
0038
00C0
00C0
00C0
0180
0180
0180
0E00
0300
0300
0600
0600
0600
0C00
0700
0000
ENDCHAR
STARTCHAR bar
ENCODING 124
SWIDTH 210 0
DWIDTH 4 0
BBX 10 19 -1 -4
BITMAP
0000
0000
0000
0000
0300
0300
0300
0600
0600
0600
0C00
0C00
0C00
1800
1800
1800
0000
0000
0000
ENDCHAR
STARTCHAR braceright
ENCODING 125
SWIDTH 421 0
DWIDTH 8 0
BBX 14 19 -1 -4
BITMAP
0000
0000
0000
01C0
00C0
00C0
00C0
0180
0180
0180
01C0
0300
0300
0600
0600
0600
0C00
3800
0000
ENDCHAR
STARTCHAR asciitilde
ENCODING 126
SWIDTH 526 0
DWIDTH 10 0
BBX 16 19 -1 -4
BITMAP
0000
0000
0000
00E0
036C
0038
0000
0000
0000
0000
0000
0000
0000
0000
0000
0000
0000
0000
0000
ENDCHAR
STARTCHAR C177
ENCODING -1
SWIDTH 315 0
DWIDTH 6 0
BBX 12 19 -1 -4
BITMAP
0000
0000
0000
0000
0000
01C0
01C0
0380
0380
0380
0700
0700
0700
0E00
0E00
0E00
0000
0000
0000
ENDCHAR
STARTCHAR C200
ENCODING -1
SWIDTH 315 0
DWIDTH 6 0
BBX 12 19 -1 -4
BITMAP
0000
0000
0000
0000
0000
01C0
01C0
0380
0380
0380
0700
0700
0700
0E00
0E00
0E00
0000
0000
0000
ENDCHAR
STARTCHAR C201
ENCODING -1
SWIDTH 315 0
DWIDTH 6 0
BBX 12 19 -1 -4
BITMAP
0000
0000
0000
0000
0000
01C0
01C0
0380
0380
0380
0700
0700
0700
0E00
0E00
0E00
0000
0000
0000
ENDCHAR
STARTCHAR C202
ENCODING -1
SWIDTH 315 0
DWIDTH 6 0
BBX 12 19 -1 -4
BITMAP
0000
0000
0000
0000
0000
01C0
01C0
0380
0380
0380
0700
0700
0700
0E00
0E00
0E00
0000
0000
0000
ENDCHAR
STARTCHAR C203
ENCODING -1
SWIDTH 315 0
DWIDTH 6 0
BBX 12 19 -1 -4
BITMAP
0000
0000
0000
0000
0000
01C0
01C0
0380
0380
0380
0700
0700
0700
0E00
0E00
0E00
0000
0000
0000
ENDCHAR
STARTCHAR C204
ENCODING -1
SWIDTH 315 0
DWIDTH 6 0
BBX 12 19 -1 -4
BITMAP
0000
0000
0000
0000
0000
01C0
01C0
0380
0380
0380
0700
0700
0700
0E00
0E00
0E00
0000
0000
0000
ENDCHAR
STARTCHAR C205
ENCODING -1
SWIDTH 315 0
DWIDTH 6 0
BBX 12 19 -1 -4
BITMAP
0000
0000
0000
0000
0000
01C0
01C0
0380
0380
0380
0700
0700
0700
0E00
0E00
0E00
0000
0000
0000
ENDCHAR
STARTCHAR C206
ENCODING -1
SWIDTH 315 0
DWIDTH 6 0
BBX 12 19 -1 -4
BITMAP
0000
0000
0000
0000
0000
01C0
01C0
0380
0380
0380
0700
0700
0700
0E00
0E00
0E00
0000
0000
0000
ENDCHAR
STARTCHAR C207
ENCODING -1
SWIDTH 315 0
DWIDTH 6 0
BBX 12 19 -1 -4
BITMAP
0000
0000
0000
0000
0000
01C0
01C0
0380
0380
0380
0700
0700
0700
0E00
0E00
0E00
0000
0000
0000
ENDCHAR
STARTCHAR C210
ENCODING -1
SWIDTH 315 0
DWIDTH 6 0
BBX 12 19 -1 -4
BITMAP
0000
0000
0000
0000
0000
01C0
01C0
0380
0380
0380
0700
0700
0700
0E00
0E00
0E00
0000
0000
0000
ENDCHAR
STARTCHAR C211
ENCODING -1
SWIDTH 315 0
DWIDTH 6 0
BBX 12 19 -1 -4
BITMAP
0000
0000
0000
0000
0000
01C0
01C0
0380
0380
0380
0700
0700
0700
0E00
0E00
0E00
0000
0000
0000
ENDCHAR
STARTCHAR C212
ENCODING -1
SWIDTH 315 0
DWIDTH 6 0
BBX 12 19 -1 -4
BITMAP
0000
0000
0000
0000
0000
01C0
01C0
0380
0380
0380
0700
0700
0700
0E00
0E00
0E00
0000
0000
0000
ENDCHAR
STARTCHAR C213
ENCODING -1
SWIDTH 315 0
DWIDTH 6 0
BBX 12 19 -1 -4
BITMAP
0000
0000
0000
0000
0000
01C0
01C0
0380
0380
0380
0700
0700
0700
0E00
0E00
0E00
0000
0000
0000
ENDCHAR
STARTCHAR C214
ENCODING -1
SWIDTH 315 0
DWIDTH 6 0
BBX 12 19 -1 -4
BITMAP
0000
0000
0000
0000
0000
01C0
01C0
0380
0380
0380
0700
0700
0700
0E00
0E00
0E00
0000
0000
0000
ENDCHAR
STARTCHAR C215
ENCODING -1
SWIDTH 315 0
DWIDTH 6 0
BBX 12 19 -1 -4
BITMAP
0000
0000
0000
0000
0000
01C0
01C0
0380
0380
0380
0700
0700
0700
0E00
0E00
0E00
0000
0000
0000
ENDCHAR
STARTCHAR C216
ENCODING -1
SWIDTH 315 0
DWIDTH 6 0
BBX 12 19 -1 -4
BITMAP
0000
0000
0000
0000
0000
01C0
01C0
0380
0380
0380
0700
0700
0700
0E00
0E00
0E00
0000
0000
0000
ENDCHAR
STARTCHAR C217
ENCODING -1
SWIDTH 315 0
DWIDTH 6 0
BBX 12 19 -1 -4
BITMAP
0000
0000
0000
0000
0000
01C0
01C0
0380
0380
0380
0700
0700
0700
0E00
0E00
0E00
0000
0000
0000
ENDCHAR
STARTCHAR C220
ENCODING -1
SWIDTH 315 0
DWIDTH 6 0
BBX 12 19 -1 -4
BITMAP
0000
0000
0000
0000
0000
01C0
01C0
0380
0380
0380
0700
0700
0700
0E00
0E00
0E00
0000
0000
0000
ENDCHAR
STARTCHAR C221
ENCODING -1
SWIDTH 263 0
DWIDTH 5 0
BBX 11 19 -1 -4
BITMAP
0000
0000
0000
0000
0180
0300
0380
0000
0000
0000
0000
0000
0000
0000
0000
0000
0000
0000
0000
ENDCHAR
STARTCHAR C222
ENCODING -1
SWIDTH 263 0
DWIDTH 5 0
BBX 11 19 -1 -4
BITMAP
0000
0000
0000
0000
0380
0180
0300
0000
0000
0000
0000
0000
0000
0000
0000
0000
0000
0000
0000
ENDCHAR
STARTCHAR C223
ENCODING -1
SWIDTH 315 0
DWIDTH 6 0
BBX 12 19 -1 -4
BITMAP
0000
0000
0000
0000
0000
01C0
01C0
0380
0380
0380
0700
0700
0700
0E00
0E00
0E00
0000
0000
0000
ENDCHAR
STARTCHAR C224
ENCODING -1
SWIDTH 315 0
DWIDTH 6 0
BBX 12 19 -1 -4
BITMAP
0000
0000
0000
0000
0000
01C0
01C0
0380
0380
0380
0700
0700
0700
0E00
0E00
0E00
0000
0000
0000
ENDCHAR
STARTCHAR C225
ENCODING -1
SWIDTH 315 0
DWIDTH 6 0
BBX 12 19 -1 -4
BITMAP
0000
0000
0000
0000
0000
01C0
01C0
0380
0380
0380
0700
0700
0700
0E00
0E00
0E00
0000
0000
0000
ENDCHAR
STARTCHAR C226
ENCODING -1
SWIDTH 315 0
DWIDTH 6 0
BBX 12 19 -1 -4
BITMAP
0000
0000
0000
0000
0000
01C0
01C0
0380
0380
0380
0700
0700
0700
0E00
0E00
0E00
0000
0000
0000
ENDCHAR
STARTCHAR C227
ENCODING -1
SWIDTH 315 0
DWIDTH 6 0
BBX 12 19 -1 -4
BITMAP
0000
0000
0000
0000
0000
01C0
01C0
0380
0380
0380
0700
0700
0700
0E00
0E00
0E00
0000
0000
0000
ENDCHAR
STARTCHAR C230
ENCODING -1
SWIDTH 315 0
DWIDTH 6 0
BBX 12 19 -1 -4
BITMAP
0000
0000
0000
0000
0000
01C0
01C0
0380
0380
0380
0700
0700
0700
0E00
0E00
0E00
0000
0000
0000
ENDCHAR
STARTCHAR C231
ENCODING -1
SWIDTH 315 0
DWIDTH 6 0
BBX 12 19 -1 -4
BITMAP
0000
0000
0000
0000
0000
01C0
01C0
0380
0380
0380
0700
0700
0700
0E00
0E00
0E00
0000
0000
0000
ENDCHAR
STARTCHAR C232
ENCODING -1
SWIDTH 315 0
DWIDTH 6 0
BBX 12 19 -1 -4
BITMAP
0000
0000
0000
0000
0000
01C0
01C0
0380
0380
0380
0700
0700
0700
0E00
0E00
0E00
0000
0000
0000
ENDCHAR
STARTCHAR C233
ENCODING -1
SWIDTH 315 0
DWIDTH 6 0
BBX 12 19 -1 -4
BITMAP
0000
0000
0000
0000
0000
01C0
01C0
0380
0380
0380
0700
0700
0700
0E00
0E00
0E00
0000
0000
0000
ENDCHAR
STARTCHAR C234
ENCODING 176
SWIDTH 315 0
DWIDTH 6 0
BBX 12 19 -1 -4
BITMAP
0000
0000
0000
0000
0000
01C0
01C0
0380
0380
0380
0700
0700
0700
0E00
0E00
0E00
0000
0000
0000
ENDCHAR
STARTCHAR C235
ENCODING 178
SWIDTH 315 0
DWIDTH 6 0
BBX 12 19 -1 -4
BITMAP
0000
0000
0000
0000
0000
01C0
01C0
0380
0380
0380
0700
0700
0700
0E00
0E00
0E00
0000
0000
0000
ENDCHAR
STARTCHAR C236
ENCODING -1
SWIDTH 315 0
DWIDTH 6 0
BBX 12 19 -1 -4
BITMAP
0000
0000
0000
0000
0000
01C0
01C0
0380
0380
0380
0700
0700
0700
0E00
0E00
0E00
0000
0000
0000
ENDCHAR
STARTCHAR C237
ENCODING -1
SWIDTH 315 0
DWIDTH 6 0
BBX 12 19 -1 -4
BITMAP
0000
0000
0000
0000
0000
01C0
01C0
0380
0380
0380
0700
0700
0700
0E00
0E00
0E00
0000
0000
0000
ENDCHAR
STARTCHAR C240
ENCODING 160
SWIDTH 263 0
DWIDTH 5 0
BBX 11 19 -1 -4
BITMAP
0000
0000
0000
0000
0000
0000
0000
0000
0000
0000
0000
0000
0000
0000
0000
0000
0000
0000
0000
ENDCHAR
STARTCHAR exclamdown
ENCODING 161
SWIDTH 578 0
DWIDTH 11 0
BBX 17 19 -1 -4
BITMAP
000000
000000
00EE00
000000
03FE00
018600
018000
030000
033000
03F000
066000
060000
060000
0C3000
1FF000
000000
000000
000000
000000
ENDCHAR
STARTCHAR cent
ENCODING 162
SWIDTH 473 0
DWIDTH 9 0
BBX 15 19 -1 -4
BITMAP
0000
0000
0000
0000
0000
0000
0000
0060
03C0
06E0
0F00
0F00
0F00
1D80
0F00
1800
0000
0000
0000
ENDCHAR
STARTCHAR sterling
ENCODING 163
SWIDTH 473 0
DWIDTH 9 0
BBX 15 19 -1 -4
BITMAP
0000
0000
0000
0000
00E0
01B0
0180
0300
0300
07C0
0600
0600
0600
0CC0
1F80
0000
0000
0000
0000
ENDCHAR
STARTCHAR currency
ENCODING 164
SWIDTH 473 0
DWIDTH 9 0
BBX 15 19 -1 -4
BITMAP
0000
0000
0000
0000
0318
01F0
01B0
0360
03E0
0630
0000
0000
0000
0000
0000
0000
0000
0000
0000
ENDCHAR
STARTCHAR yen
ENCODING 165
SWIDTH 473 0
DWIDTH 9 0
BBX 15 19 -1 -4
BITMAP
0000
0000
0000
0000
073C
0418
0330
0660
0FF0
0180
1FE0
0300
0300
0600
0F00
0000
0000
0000
0000
ENDCHAR
STARTCHAR brokenbar
ENCODING 166
SWIDTH 263 0
DWIDTH 5 0
BBX 11 19 -1 -4
BITMAP
0000
0000
0000
0000
0300
0300
0300
0600
0600
0600
0000
0000
0000
1800
1800
1800
3000
3000
3000
ENDCHAR
STARTCHAR section
ENCODING 167
SWIDTH 473 0
DWIDTH 9 0
BBX 15 19 -1 -4
BITMAP
0000
0000
0000
0000
01F0
0318
0300
0380
06E0
0630
0760
01C0
0060
18C0
0F80
0000
0000
0000
0000
ENDCHAR
STARTCHAR dieresis
ENCODING 168
SWIDTH 315 0
DWIDTH 6 0
BBX 12 19 -1 -4
BITMAP
0000
0000
0000
0000
04C0
0000
0000
0000
0000
0000
0000
0000
0000
0000
0000
0000
0000
0000
0000
ENDCHAR
STARTCHAR copyright
ENCODING 191
SWIDTH 736 0
DWIDTH 14 0
BBX 20 19 -1 -4
BITMAP
000000
000000
000000
000000
007E00
01C380
01BD80
06CD80
06C180
06C180
0D8300
0D9B00
06F600
0E1C00
03F000
000000
000000
000000
000000
ENDCHAR
STARTCHAR ordfeminine
ENCODING 170
SWIDTH 263 0
DWIDTH 5 0
BBX 11 19 -1 -4
BITMAP
0000
0000
0000
0000
0380
00C0
03C0
0980
0780
0000
1F00
0000
0000
0000
0000
0000
0000
0000
0000
ENDCHAR
STARTCHAR guillemotleft
ENCODING 171
SWIDTH 473 0
DWIDTH 9 0
BBX 15 19 -1 -4
BITMAP
0000
0000
0000
0000
0000
0000
0000
0000
01B0
0360
0D80
1300
0D80
0D80
06C0
0000
0000
0000
0000
ENDCHAR
STARTCHAR logicalnot
ENCODING 172
SWIDTH 526 0
DWIDTH 10 0
BBX 16 19 -1 -4
BITMAP
0000
0000
0000
0000
0000
0000
0000
0000
0000
07F8
0030
0030
0000
0000
0000
0000
0000
0000
0000
ENDCHAR
STARTCHAR hyphen
ENCODING 173
SWIDTH 315 0
DWIDTH 6 0
BBX 12 19 -1 -4
BITMAP
0000
0000
0000
0000
0000
0000
0000
0000
0000
0000
1F00
0000
0000
0000
0000
0000
0000
0000
0000
ENDCHAR
STARTCHAR registered
ENCODING 174
SWIDTH 736 0
DWIDTH 14 0
BBX 20 19 -1 -4
BITMAP
000000
000000
000000
000000
007E00
01C380
01FD80
06CD80
06CD80
06F980
0DB300
0DB300
079E00
0E1C00
03F000
000000
000000
000000
000000
ENDCHAR
STARTCHAR macron
ENCODING 175
SWIDTH 473 0
DWIDTH 9 0
BBX 15 19 -1 -4
BITMAP
01FF
0000
0000
0000
0000
0000
0000
0000
0000
0000
0000
0000
0000
0000
0000
0000
0000
0000
0000
ENDCHAR
STARTCHAR degree
ENCODING 156
SWIDTH 315 0
DWIDTH 6 0
BBX 12 19 -1 -4
BITMAP
0000
0000
0000
0000
0180
03C0
0180
0000
0000
0000
0000
0000
0000
0000
0000
0000
0000
0000
0000
ENDCHAR
STARTCHAR plusminus
ENCODING 177
SWIDTH 526 0
DWIDTH 10 0
BBX 16 19 -1 -4
BITMAP
0000
0000
0000
0000
0000
0060
0060
00C0
07F8
00C0
0180
0180
0000
0000
1FE0
0000
0000
0000
0000
ENDCHAR
STARTCHAR twosuperior
ENCODING 157
SWIDTH 263 0
DWIDTH 5 0
BBX 11 19 -1 -4
BITMAP
0000
0000
0000
0000
0380
04C0
0180
0600
0800
0F80
0000
0000
0000
0000
0000
0000
0000
0000
0000
ENDCHAR
STARTCHAR threesuperior
ENCODING 179
SWIDTH 263 0
DWIDTH 5 0
BBX 11 19 -1 -4
BITMAP
0000
0000
0000
0000
0380
04C0
0180
0180
0980
0700
0000
0000
0000
0000
0000
0000
0000
0000
0000
ENDCHAR
STARTCHAR acute
ENCODING 180
SWIDTH 315 0
DWIDTH 6 0
BBX 12 19 -1 -4
BITMAP
0000
0000
0000
0060
0180
0300
0000
0000
0000
0000
0000
0000
0000
0000
0000
0000
0000
0000
0000
ENDCHAR
STARTCHAR mu
ENCODING 181
SWIDTH 578 0
DWIDTH 11 0
BBX 17 19 -1 -4
BITMAP
000000
000000
000000
000000
000000
000000
000000
000000
031800
031800
063000
063000
063000
0C6000
0FF800
0C0000
180000
180000
180000
ENDCHAR
STARTCHAR paragraph
ENCODING 182
SWIDTH 421 0
DWIDTH 8 0
BBX 14 19 -1 -4
BITMAP
0000
0000
0000
0000
03F0
07F0
07F0
0FE0
0FE0
07E0
03C0
03C0
03C0
0780
0780
0780
0000
0000
0000
ENDCHAR
STARTCHAR periodcentered
ENCODING 183
SWIDTH 263 0
DWIDTH 5 0
BBX 11 19 -1 -4
BITMAP
0000
0000
0000
0000
0000
0000
0000
0000
0000
0600
0000
0000
0000
0000
0000
0000
0000
0000
0000
ENDCHAR
STARTCHAR cedilla
ENCODING 184
SWIDTH 315 0
DWIDTH 6 0
BBX 12 19 -1 -4
BITMAP
0000
0000
0000
0000
0000
0000
0000
0000
0000
0000
0000
0000
0000
0000
0000
1800
1800
7000
0000
ENDCHAR
STARTCHAR onesuperior
ENCODING 185
SWIDTH 263 0
DWIDTH 5 0
BBX 11 19 -1 -4
BITMAP
0000
0000
0000
0000
0180
0380
0180
0300
0300
0780
0000
0000
0000
0000
0000
0000
0000
0000
0000
ENDCHAR
STARTCHAR ordmasculine
ENCODING 186
SWIDTH 315 0
DWIDTH 6 0
BBX 12 19 -1 -4
BITMAP
0000
0000
0000
0000
03C0
0460
0460
08C0
0780
0000
1F80
0000
0000
0000
0000
0000
0000
0000
0000
ENDCHAR
STARTCHAR guillemotright
ENCODING 187
SWIDTH 473 0
DWIDTH 9 0
BBX 15 19 -1 -4
BITMAP
0000
0000
0000
0000
0000
0000
0000
0000
0980
06C0
06C0
0360
06C0
1B00
2600
0000
0000
0000
0000
ENDCHAR
STARTCHAR onequarter
ENCODING 188
SWIDTH 631 0
DWIDTH 12 0
BBX 18 19 -1 -4
BITMAP
000000
000000
000000
000000
018180
038300
018600
031800
033000
07EC00
01B800
037800
067800
18F800
203000
000000
000000
000000
000000
ENDCHAR
STARTCHAR onehalf
ENCODING 189
SWIDTH 631 0
DWIDTH 12 0
BBX 18 19 -1 -4
BITMAP
000000
000000
000000
000000
018180
038300
018600
031800
033000
07EE00
01B600
030C00
061800
186000
207C00
000000
000000
000000
000000
ENDCHAR
STARTCHAR threequarters
ENCODING 190
SWIDTH 631 0
DWIDTH 12 0
BBX 18 19 -1 -4
BITMAP
000000
000000
000000
000000
038180
04C300
018600
019800
09B000
076C00
01B800
037800
067800
18F800
203000
000000
000000
000000
000000
ENDCHAR
STARTCHAR questiondown
ENCODING 169
SWIDTH 421 0
DWIDTH 8 0
BBX 14 19 -1 -4
BITMAP
0000
0000
0000
0000
0000
03F0
0000
03C0
0660
0660
0FC0
0C00
0C00
1980
0F00
0000
0000
0000
0000
ENDCHAR
STARTCHAR cyr-A
ENCODING 225
SWIDTH 631 0
DWIDTH 12 0
BBX 18 19 -1 -4
BITMAP
000000
000000
000000
000000
003000
003000
007800
00F000
019800
019800
061800
07F800
0C0C00
181800
3C3C00
000000
000000
000000
000000
ENDCHAR
STARTCHAR cyr-Be
ENCODING 226
SWIDTH 631 0
DWIDTH 12 0
BBX 18 19 -1 -4
BITMAP
000000
000000
000000
000000
03FC00
018600
018000
030000
03F800
030C00
060C00
060C00
060C00
0C3000
1FE000
000000
000000
000000
000000
ENDCHAR
STARTCHAR cyr-Ve
ENCODING 247
SWIDTH 631 0
DWIDTH 12 0
BBX 18 19 -1 -4
BITMAP
000000
000000
000000
000000
03F800
018C00
018600
030C00
031800
03F800
061800
060C00
060C00
0C3000
1FE000
000000
000000
000000
000000
ENDCHAR
STARTCHAR cyr-Ghe
ENCODING 231
SWIDTH 526 0
DWIDTH 10 0
BBX 16 19 -1 -4
BITMAP
0000
0000
0000
0000
03FE
0186
0180
0300
0300
0300
0600
0600
0600
0C00
1E00
0000
0000
0000
0000
ENDCHAR
STARTCHAR cyr-De
ENCODING 228
SWIDTH 631 0
DWIDTH 12 0
BBX 18 19 -1 -4
BITMAP
000000
000000
000000
000000
01FF00
00C600
00C600
018C00
018C00
018C00
031800
031800
031800
0C3000
1FF800
181800
303000
000000
000000
ENDCHAR
STARTCHAR cyr-Ie
ENCODING 229
SWIDTH 578 0
DWIDTH 11 0
BBX 17 19 -1 -4
BITMAP
000000
000000
000000
000000
03FE00
018600
018000
030000
033000
03F000
066000
060000
060000
0C3000
1FF000
000000
000000
000000
000000
ENDCHAR
STARTCHAR cyr-Zhe
ENCODING 246
SWIDTH 1000 0
DWIDTH 19 0
BBX 25 19 -1 -4
BITMAP
00000000
00000000
00000000
00000000
01E79E00
00C30C00
00631800
00666000
0036C000
003FC000
00DEC000
018C6000
030C3000
0C183000
1E3C7800
00000000
00000000
00000000
00000000
ENDCHAR
STARTCHAR cyr-Ze
ENCODING 250
SWIDTH 578 0
DWIDTH 11 0
BBX 17 19 -1 -4
BITMAP
000000
000000
000000
000000
01F800
030C00
000600
000C00
001800
00F000
003000
001800
001800
186000
0FC000
000000
000000
000000
000000
ENDCHAR
STARTCHAR cyr-I
ENCODING 233
SWIDTH 684 0
DWIDTH 13 0
BBX 19 19 -1 -4
BITMAP
000000
000000
000000
000000
03C780
018300
018300
030E00
031E00
033600
06CC00
078C00
070C00
0C1800
1E3C00
000000
000000
000000
000000
ENDCHAR
STARTCHAR cyr-I-short
ENCODING 234
SWIDTH 684 0
DWIDTH 13 0
BBX 19 19 -1 -4
BITMAP
000000
000000
003E00
000000
03C780
018300
018300
030E00
031E00
033600
06CC00
078C00
070C00
0C1800
1E3C00
000000
000000
000000
000000
ENDCHAR
STARTCHAR cyr-Ka
ENCODING 235
SWIDTH 631 0
DWIDTH 12 0
BBX 18 19 -1 -4
BITMAP
000000
000000
000000
000000
03CF00
018600
018C00
033000
036000
03E000
076000
063000
061800
0C1800
1E3C00
000000
000000
000000
000000
ENDCHAR
STARTCHAR cyr-El
ENCODING 236
SWIDTH 684 0
DWIDTH 13 0
BBX 19 19 -1 -4
BITMAP
000000
000000
000000
000000
00FF80
006300
006300
00C600
00C600
00C600
018C00
018C00
018C00
031800
1E3C00
000000
000000
000000
000000
ENDCHAR
STARTCHAR cyr-Em
ENCODING 237
SWIDTH 842 0
DWIDTH 16 0
BBX 22 19 -1 -4
BITMAP
000000
000000
000000
000000
038070
01C0E0
01C0E0
03C3C0
03C3C0
0366C0
06CD80
067980
067980
0C6300
1E6780
000000
000000
000000
000000
ENDCHAR
STARTCHAR cyr-En
ENCODING 238
SWIDTH 684 0
DWIDTH 13 0
BBX 19 19 -1 -4
BITMAP
000000
000000
000000
000000
03C780
018300
018300
030600
030600
03FE00
060C00
060C00
060C00
0C1800
1E3C00
000000
000000
000000
000000
ENDCHAR
STARTCHAR cyr-O
ENCODING 239
SWIDTH 684 0
DWIDTH 13 0
BBX 19 19 -1 -4
BITMAP
000000
000000
000000
000000
007C00
01C700
018300
060300
060300
060300
0C0600
0C0600
060C00
0E3800
03E000
000000
000000
000000
000000
ENDCHAR
STARTCHAR cyr-Pe
ENCODING 240
SWIDTH 684 0
DWIDTH 13 0
BBX 19 19 -1 -4
BITMAP
000000
000000
000000
000000
03FF80
018300
018300
030600
030600
030600
060C00
060C00
060C00
0C1800
1E3C00
000000
000000
000000
000000
ENDCHAR
STARTCHAR cyr-Er
ENCODING 242
SWIDTH 631 0
DWIDTH 12 0
BBX 18 19 -1 -4
BITMAP
000000
000000
000000
000000
03FC00
018600
018300
030600
030600
030C00
07F000
060000
060000
0C0000
1E0000
000000
000000
000000
000000
ENDCHAR
STARTCHAR cyr-Es
ENCODING 243
SWIDTH 631 0
DWIDTH 12 0
BBX 18 19 -1 -4
BITMAP
000000
000000
000000
000000
007F00
01C700
018300
060000
060000
060000
0C0000
0C0600
060C00
0E3800
03E000
000000
000000
000000
000000
ENDCHAR
STARTCHAR cyr-Te
ENCODING 244
SWIDTH 631 0
DWIDTH 12 0
BBX 18 19 -1 -4
BITMAP
000000
000000
000000
000000
03FF00
033300
003000
006000
006000
006000
00C000
00C000
00C000
018000
03C000
000000
000000
000000
000000
ENDCHAR
STARTCHAR cyr-U
ENCODING 245
SWIDTH 684 0
DWIDTH 13 0
BBX 19 19 -1 -4
BITMAP
000000
000000
000000
000000
03C3C0
018180
00C300
00C600
00CC00
006C00
00F000
007000
006000
00C000
078000
000000
000000
000000
000000
ENDCHAR
STARTCHAR cyr-Ef
ENCODING 230
SWIDTH 736 0
DWIDTH 14 0
BBX 20 19 -1 -4
BITMAP
000000
000000
000000
000000
00FF00
019980
0318C0
063180
063180
063180
0C6300
0C6300
0C6300
0CCC00
07F800
00C000
018000
03C000
000000
ENDCHAR
STARTCHAR cyr-Kha
ENCODING 232
SWIDTH 736 0
DWIDTH 14 0
BBX 20 19 -1 -4
BITMAP
000000
000000
000000
000000
03C3C0
018180
00C300
00CC00
007800
003000
00F000
019800
030C00
0C0C00
1E1E00
000000
000000
000000
000000
ENDCHAR
STARTCHAR cyr-Tse
ENCODING 227
SWIDTH 684 0
DWIDTH 13 0
BBX 19 19 -1 -4
BITMAP
000000
000000
000000
000000
03C780
018300
018300
030600
030600
030600
060C00
060C00
060C00
0C1800
1FFC00
000C00
001800
000000
000000
ENDCHAR
STARTCHAR cyr-Che
ENCODING 254
SWIDTH 684 0
DWIDTH 13 0
BBX 19 19 -1 -4
BITMAP
000000
000000
000000
000000
03C780
018300
018300
030600
030600
01FE00
000C00
000C00
000C00
001800
003C00
000000
000000
000000
000000
ENDCHAR
STARTCHAR cyr-Sha
ENCODING 251
SWIDTH 947 0
DWIDTH 18 0
BBX 24 19 -1 -4
BITMAP
000000
000000
000000
000000
03CF3C
018618
018618
030C30
030C30
030C30
061860
061860
061860
0C30C0
1FFFE0
000000
000000
000000
000000
ENDCHAR
STARTCHAR cyr-Shcha
ENCODING 253
SWIDTH 947 0
DWIDTH 18 0
BBX 24 19 -1 -4
BITMAP
000000
000000
000000
000000
03CF3C
018618
018618
030C30
030C30
030C30
061860
061860
061860
0C30C0
1FFFE0
000060
0000C0
000000
000000
ENDCHAR
STARTCHAR cyr-Ier
ENCODING 255
SWIDTH 736 0
DWIDTH 14 0
BBX 20 19 -1 -4
BITMAP
000000
000000
000000
000000
03F000
036000
036000
00C000
00FE00
00C300
018300
018300
018300
030C00
07F800
000000
000000
000000
000000
ENDCHAR
STARTCHAR cyr-Iery
ENCODING 249
SWIDTH 842 0
DWIDTH 16 0
BBX 22 19 -1 -4
BITMAP
000000
000000
000000
000000
03C0F0
018060
018060
0300C0
03F8C0
030CC0
060D80
060D80
060D80
0C3300
1FE780
000000
000000
000000
000000
ENDCHAR
STARTCHAR cyr-Ierik
ENCODING 248
SWIDTH 631 0
DWIDTH 12 0
BBX 18 19 -1 -4
BITMAP
000000
000000
000000
000000
03C000
018000
018000
030000
03F800
030C00
060C00
060C00
060C00
0C3000
1FE000
000000
000000
000000
000000
ENDCHAR
STARTCHAR cyr-E-rev
ENCODING 252
SWIDTH 578 0
DWIDTH 11 0
BBX 17 19 -1 -4
BITMAP
000000
000000
000000
000000
00F800
018C00
030600
000C00
000C00
01FC00
001800
001800
0C1800
0C6000
07C000
000000
000000
000000
000000
ENDCHAR
STARTCHAR cyr-Yu
ENCODING 224
SWIDTH 947 0
DWIDTH 18 0
BBX 24 19 -1 -4
BITMAP
000000
000000
000000
000000
03C3E0
018E38
018C18
033018
033018
03F018
066030
066030
063060
0C71C0
1E1F00
000000
000000
000000
000000
ENDCHAR
STARTCHAR cyr-Ya
ENCODING 241
SWIDTH 736 0
DWIDTH 14 0
BBX 20 19 -1 -4
BITMAP
000000
000000
000000
000000
007FC0
00C180
00C180
018300
018300
00FF00
00C600
018600
030600
060C00
1E1E00
000000
000000
000000
000000
ENDCHAR
STARTCHAR cyr-a
ENCODING 193
SWIDTH 421 0
DWIDTH 8 0
BBX 14 19 -1 -4
BITMAP
0000
0000
0000
0000
0000
0000
0000
03C0
0660
0060
07C0
0CC0
0CC0
1980
0FC0
0000
0000
0000
0000
ENDCHAR
STARTCHAR cyr-be
ENCODING 194
SWIDTH 368 0
DWIDTH 7 0
BBX 13 19 -1 -4
BITMAP
0000
0000
0018
00F0
0300
0300
0300
07C0
0760
0660
0CC0
0CC0
0CC0
1980
0F00
0000
0000
0000
0000
ENDCHAR
STARTCHAR cyr-ve
ENCODING 215
SWIDTH 421 0
DWIDTH 8 0
BBX 14 19 -1 -4
BITMAP
0000
0000
0000
0000
0000
0000
0000
07C0
0360
0360
07C0
0660
0660
0CC0
1F80
0000
0000
0000
0000
ENDCHAR
STARTCHAR cyr-ghe
ENCODING 199
SWIDTH 421 0
DWIDTH 8 0
BBX 14 19 -1 -4
BITMAP
0000
0000
0000
0000
0000
0000
0000
07F0
0330
0300
0600
0600
0600
0C00
1E00
0000
0000
0000
0000
ENDCHAR
STARTCHAR cyr-de
ENCODING 196
SWIDTH 473 0
DWIDTH 9 0
BBX 15 19 -1 -4
BITMAP
0000
0000
0000
0000
0000
0000
0000
03F8
01B0
01B0
0360
0360
0360
0CC0
1FE0
1860
30C0
0000
0000
ENDCHAR
STARTCHAR cyr-ie
ENCODING 197
SWIDTH 368 0
DWIDTH 7 0
BBX 13 19 -1 -4
BITMAP
0000
0000
0000
0000
0000
0000
0000
03C0
0660
0660
0FC0
0C00
0C00
1980
0F00
0000
0000
0000
0000
ENDCHAR
STARTCHAR cyr-zhe
ENCODING 214
SWIDTH 789 0
DWIDTH 15 0
BBX 21 19 -1 -4
BITMAP
000000
000000
000000
000000
000000
000000
000000
03FFC0
019980
00DB00
00FC00
01B600
033300
066600
0FFF00
000000
000000
000000
000000
ENDCHAR
STARTCHAR cyr-z
ENCODING 218
SWIDTH 421 0
DWIDTH 8 0
BBX 14 19 -1 -4
BITMAP
0000
0000
0000
0000
0000
0000
0000
03E0
0630
0030
01C0
0060
0060
18C0
0F80
0000
0000
0000
0000
ENDCHAR
STARTCHAR cyr-i
ENCODING 201
SWIDTH 526 0
DWIDTH 10 0
BBX 16 19 -1 -4
BITMAP
0000
0000
0000
0000
0000
0000
0000
07BC
0338
0378
06F0
07B0
07B0
0E60
1EF0
0000
0000
0000
0000
ENDCHAR
STARTCHAR cyr-i-short
ENCODING 202
SWIDTH 526 0
DWIDTH 10 0
BBX 16 19 -1 -4
BITMAP
0000
0000
0000
0000
0000
0070
0000
07BC
0338
0378
06F0
07B0
07B0
0E60
1EF0
0000
0000
0000
0000
ENDCHAR
STARTCHAR cyr-ka
ENCODING 203
SWIDTH 473 0
DWIDTH 9 0
BBX 15 19 -1 -4
BITMAP
0000
0000
0000
0000
0000
0000
0000
07F8
0330
0360
0780
06C0
0660
0CC0
1FE0
0000
0000
0000
0000
ENDCHAR
STARTCHAR cyr-el
ENCODING 204
SWIDTH 526 0
DWIDTH 10 0
BBX 16 19 -1 -4
BITMAP
0000
0000
0000
0000
0000
0000
0000
03FC
0198
0198
0330
0330
0330
0660
1CF0
0000
0000
0000
0000
ENDCHAR
STARTCHAR cyr-em
ENCODING 205
SWIDTH 578 0
DWIDTH 11 0
BBX 17 19 -1 -4
BITMAP
000000
000000
000000
000000
000000
000000
000000
070E00
039C00
039C00
07F800
07F800
06D800
0DB000
1E7800
000000
000000
000000
000000
ENDCHAR
STARTCHAR cyr-en
ENCODING 206
SWIDTH 473 0
DWIDTH 9 0
BBX 15 19 -1 -4
BITMAP
0000
0000
0000
0000
0000
0000
0000
07F8
0330
0330
07E0
0660
0660
0CC0
1FE0
0000
0000
0000
0000
ENDCHAR
STARTCHAR cyr-o
ENCODING 207
SWIDTH 421 0
DWIDTH 8 0
BBX 14 19 -1 -4
BITMAP
0000
0000
0000
0000
0000
0000
0000
03E0
0630
0630
0C60
0C60
0C60
18C0
0F80
0000
0000
0000
0000
ENDCHAR
STARTCHAR cyr-pe
ENCODING 208
SWIDTH 473 0
DWIDTH 9 0
BBX 15 19 -1 -4
BITMAP
0000
0000
0000
0000
0000
0000
0000
07F8
0330
0330
0660
0660
0660
0CC0
1FE0
0000
0000
0000
0000
ENDCHAR
STARTCHAR cyr-er
ENCODING 210
SWIDTH 421 0
DWIDTH 8 0
BBX 14 19 -1 -4
BITMAP
0000
0000
0000
0000
0000
0000
0000
07E0
0330
0330
0660
0660
0660
0CC0
0F80
0C00
1800
1800
3C00
ENDCHAR
STARTCHAR cyr-es
ENCODING 211
SWIDTH 368 0
DWIDTH 7 0
BBX 13 19 -1 -4
BITMAP
0000
0000
0000
0000
0000
0000
0000
03C0
0660
0600
0C00
0C00
0C00
1980
0F00
0000
0000
0000
0000
ENDCHAR
STARTCHAR cyr-te
ENCODING 212
SWIDTH 473 0
DWIDTH 9 0
BBX 15 19 -1 -4
BITMAP
0000
0000
0000
0000
0000
0000
0000
07F8
06D8
00C0
0180
0180
0180
0300
0780
0000
0000
0000
0000
ENDCHAR
STARTCHAR cyr-u
ENCODING 213
SWIDTH 473 0
DWIDTH 9 0
BBX 15 19 -1 -4
BITMAP
0000
0000
0000
0000
0000
0000
0000
07F8
0330
0330
03C0
03C0
03C0
0300
0300
0600
0C00
3C00
3800
ENDCHAR
STARTCHAR cyr-ef
ENCODING 198
SWIDTH 473 0
DWIDTH 9 0
BBX 15 19 -1 -4
BITMAP
0000
0000
0000
0000
0000
0000
0000
03F0
06D8
06D8
0DB0
0DB0
0DB0
1B60
0FC0
0300
0600
0600
0F00
ENDCHAR
STARTCHAR cyr-kha
ENCODING 200
SWIDTH 473 0
DWIDTH 9 0
BBX 15 19 -1 -4
BITMAP
0000
0000
0000
0000
0000
0000
0000
0738
0330
01E0
0180
0180
03C0
0CC0
1CE0
0000
0000
0000
0000
ENDCHAR
STARTCHAR cyr-tse
ENCODING 195
SWIDTH 473 0
DWIDTH 9 0
BBX 15 19 -1 -4
BITMAP
0000
0000
0000
0000
0000
0000
0000
07F8
0330
0330
0660
0660
0660
0CC0
1FE0
0060
00C0
0000
0000
ENDCHAR
STARTCHAR cyr-che
ENCODING 222
SWIDTH 473 0
DWIDTH 9 0
BBX 15 19 -1 -4
BITMAP
0000
0000
0000
0000
0000
0000
0000
07F8
0330
0330
0660
03E0
0060
00C0
01E0
0000
0000
0000
0000
ENDCHAR
STARTCHAR cyr-sha
ENCODING 219
SWIDTH 684 0
DWIDTH 13 0
BBX 19 19 -1 -4
BITMAP
000000
000000
000000
000000
000000
000000
000000
07FF80
033300
033300
066600
066600
066600
0CCC00
1FFE00
000000
000000
000000
000000
ENDCHAR
STARTCHAR cyr-shcha
ENCODING 221
SWIDTH 684 0
DWIDTH 13 0
BBX 19 19 -1 -4
BITMAP
000000
000000
000000
000000
000000
000000
000000
07FF80
033300
033300
066600
066600
066600
0CCC00
1FFE00
000600
000C00
000000
000000
ENDCHAR
STARTCHAR cyr-ier
ENCODING 223
SWIDTH 473 0
DWIDTH 9 0
BBX 15 19 -1 -4
BITMAP
0000
0000
0000
0000
0000
0000
0000
07C0
0780
0780
03E0
0330
0330
0660
0FC0
0000
0000
0000
0000
ENDCHAR
STARTCHAR cyr-iery
ENCODING 217
SWIDTH 631 0
DWIDTH 12 0
BBX 18 19 -1 -4
BITMAP
000000
000000
000000
000000
000000
000000
000000
078F00
030600
030600
07CC00
066C00
066C00
0CD800
1FBC00
000000
000000
000000
000000
ENDCHAR
STARTCHAR cyr-ierik
ENCODING 216
SWIDTH 421 0
DWIDTH 8 0
BBX 14 19 -1 -4
BITMAP
0000
0000
0000
0000
0000
0000
0000
0780
0300
0300
07C0
0660
0660
0CC0
1F80
0000
0000
0000
0000
ENDCHAR
STARTCHAR cyr-e-rev
ENCODING 220
SWIDTH 421 0
DWIDTH 8 0
BBX 14 19 -1 -4
BITMAP
0000
0000
0000
0000
0000
0000
0000
03E0
0630
0030
03E0
0060
0060
18C0
0F80
0000
0000
0000
0000
ENDCHAR
STARTCHAR cyr-yu
ENCODING 192
SWIDTH 631 0
DWIDTH 12 0
BBX 18 19 -1 -4
BITMAP
000000
000000
000000
000000
000000
000000
000000
07BE00
036300
036300
07C600
06C600
06C600
0D8C00
1EF800
000000
000000
000000
000000
ENDCHAR
STARTCHAR cyr-ya
ENCODING 209
SWIDTH 473 0
DWIDTH 9 0
BBX 15 19 -1 -4
BITMAP
0000
0000
0000
0000
0000
0000
0000
01F8
0330
0330
0660
03E0
0360
0CC0
1DE0
0000
0000
0000
0000
ENDCHAR
ENDFONT
